<svg xmlns="http://www.w3.org/2000/svg" viewBox="0 0 143 143"><defs><style>.cls-1{fill:#553d36;}.cls-2{fill:#fff;}</style></defs><title>Asset 10</title><g id="Layer_2" data-name="Layer 2"><g id="Layer_1-2" data-name="Layer 1"><rect class="cls-1" width="143" height="143" rx="21.12"/><path class="cls-2" d="M47.07,37.34c0,4.87-3.58,8.74-9.41,8.74-5.54,0-9.13-3.87-9.11-8.74s3.65-8.77,9.27-8.77S47,32.32,47.07,37.34Zm-18,71.91V53H46.57v56.29Z"/><path class="cls-2" d="M60.56,70.94c0-7-.22-12.93-.46-18H75.28l.81,7.8h.36a20.39,20.39,0,0,1,17.4-9.06c11.49,0,20.14,7.67,20.14,24.23v33.32H96.47V78.05c0-7.25-2.59-12.21-8.9-12.21-4.82,0-7.67,3.37-8.88,6.61a12.45,12.45,0,0,0-.61,4.32v32.48H60.56Z"/></g></g></svg>