<svg xmlns="http://www.w3.org/2000/svg" viewBox="0 0 143 143"><defs><style>.cls-1,.cls-3{fill:#553d36;}.cls-2{fill:#fcfcfc;}.cls-3{fill-rule:evenodd;}.cls-4{fill:#181616;}</style></defs><title>Asset 6</title><g id="Layer_2" data-name="Layer 2"><g id="Layer_1-2" data-name="Layer 1"><rect class="cls-1" width="143" height="143" rx="21.12"/><path class="cls-2" d="M32.49,23.45h79a0,0,0,0,1,0,0v70a28,28,0,0,1-28,28H62.67A34.17,34.17,0,0,1,28.5,87.28V27.43A4,4,0,0,1,32.49,23.45Z"/><path class="cls-3" d="M73.5,3.55A60.39,60.39,0,0,0,54.41,121.24c3,.56,4.13-1.31,4.13-2.9,0-1.44-.06-6.2-.09-11.25C41.65,110.75,38.11,100,38.11,100c-2.75-7-6.71-8.84-6.71-8.84-5.48-3.75.42-3.67.42-3.67,6.06.43,9.25,6.22,9.25,6.22,5.39,9.24,14.13,6.57,17.58,5,.54-3.9,2.1-6.56,3.83-8.07C49.07,89.1,35,83.92,35,60.79a23.37,23.37,0,0,1,6.22-16.21c-.63-1.53-2.69-7.67.58-16,0,0,5.08-1.62,16.61,6.2a57.09,57.09,0,0,1,30.25,0c11.52-7.82,16.59-6.2,16.59-6.2,3.28,8.32,1.22,14.46.59,16A23.33,23.33,0,0,1,112,60.79C112,84,97.9,89.09,84.45,90.58c2.17,1.88,4.1,5.55,4.1,11.18,0,8.08-.07,14.59-.07,16.58,0,1.6,1.08,3.49,4.14,2.89A60.39,60.39,0,0,0,73.5,3.55Z"/><path class="cls-4" d="M36,90.25c-.13.31-.6.4-1,.19s-.68-.61-.54-.91.6-.39,1-.19.69.61.53.91Z"/><path class="cls-4" d="M38.43,93c-.29.27-.85.15-1.23-.28A.92.92,0,0,1,37,91.45c.3-.27.84-.14,1.24.28s.47,1,.17,1.25Z"/><path class="cls-4" d="M40.81,96.46c-.37.26-1,0-1.35-.52s-.37-1.18,0-1.44,1,0,1.35.51.37,1.19,0,1.45Z"/><path class="cls-4" d="M44.07,99.82c-.33.37-1,.27-1.55-.23s-.67-1.18-.34-1.54,1-.27,1.56.23.69,1.18.33,1.54Z"/><path class="cls-4" d="M48.57,101.77c-.14.48-.82.69-1.51.49s-1.13-.76-1-1.24.83-.7,1.52-.48,1.12.75,1,1.23Z"/><path class="cls-4" d="M53.52,102.13c0,.5-.57.91-1.29.92s-1.3-.38-1.31-.87.57-.91,1.29-.93,1.31.39,1.31.88Z"/><path class="cls-4" d="M58.11,101.35c.09.49-.41,1-1.12,1.12s-1.35-.17-1.44-.65.42-1,1.12-1.13,1.35.17,1.44.66Z"/></g></g></svg>